
<?xml version="1.0" encoding="UTF-8"?>
<svg width="960" height="960" viewBox="0 0 960 960" xmlns="http://www.w3.org/2000/svg">
  <!-- E-bike silhouette icon with right-side angle -->
  <g fill="#000000" stroke="none">
    <!-- Rear wheel -->
    <circle cx="240" cy="680" r="140" fill="none" stroke="#000000" stroke-width="30"/>
    <circle cx="240" cy="680" r="100" fill="none" stroke="#000000" stroke-width="20"/>
    <circle cx="240" cy="680" r="20" fill="#000000"/>
    
    <!-- Front wheel -->
    <circle cx="720" cy="680" r="140" fill="none" stroke="#000000" stroke-width="30"/>
    <circle cx="720" cy="680" r="100" fill="none" stroke="#000000" stroke-width="20"/>
    <circle cx="720" cy="680" r="20" fill="#000000"/>
    
    <!-- Frame -->
    <!-- Main triangle -->
    <path d="M 240 680 L 480 280 L 720 680" fill="none" stroke="#000000" stroke-width="35" stroke-linecap="round" stroke-linejoin="round"/>
    
    <!-- Seat tube -->
    <line x1="240" y1="680" x2="360" y2="400" stroke="#000000" stroke-width="35" stroke-linecap="round"/>
    
    <!-- Top tube -->
    <line x1="360" y1="400" x2="620" y2="360" stroke="#000000" stroke-width="35" stroke-linecap="round"/>
    
    <!-- Down tube with battery (thicker) -->
    <path d="M 240 680 L 620 360" stroke="#000000" stroke-width="55" stroke-linecap="round"/>
    
    <!-- Head tube -->
    <line x1="620" y1="360" x2="720" y2="680" stroke="#000000" stroke-width="35" stroke-linecap="round"/>
    
    <!-- Handlebar -->
    <line x1="620" y1="360" x2="660" y2="280" stroke="#000000" stroke-width="30" stroke-linecap="round"/>
    <line x1="630" y1="300" x2="730" y2="300" stroke="#000000" stroke-width="25" stroke-linecap="round"/>
    
    <!-- Saddle -->
    <ellipse cx="360" cy="380" rx="60" ry="20" fill="#000000"/>
    
    <!-- Pedal crank -->
    <circle cx="480" cy="620" r="50" fill="none" stroke="#000000" stroke-width="25"/>
    <line x1="480" y1="620" x2="520" y2="660" stroke="#000000" stroke-width="20" stroke-linecap="round"/>
    <rect x="510" y="655" width="40" height="15" fill="#000000" rx="3"/>
    
    <!-- Motor housing (electric bike indicator) -->
    <circle cx="480" cy="620" r="70" fill="none" stroke="#000000" stroke-width="20" opacity="0.6"/>
    
    <!-- Chain stays -->
    <line x1="480" y1="620" x2="240" y2="680" stroke="#000000" stroke-width="25" stroke-linecap="round"/>
    <line x1="480" y1="620" x2="720" y2="680" stroke="#000000" stroke-width="25" stroke-linecap="round"/>
  </g>
</svg>
